{"accessors" : [{"bufferView" : 0, "byteOffset" : 0, "componentType" : 5126, "count" : 24722840, "type" : "VEC3", "max" : [49.44789123535156, 31.13676643371582, 12.565650939941406], "min" : [-15.757789611816406, 0.2552724778652191, -17.548336029052734], "name" : "POSITION"}], "asset" : {"generator" : "Aspose.3D 23.4.0", "version" : "2.0"}, "buffers" : [{"uri" : "buffer.bin", "byteLength" : 296674084}], "bufferViews" : [{"buffer" : 0, "byteOffset" : 0, "byteLength" : 296674080, "byteStride" : 12, "target" : 34962}], "meshes" : [{"primitives" : [{"attributes" : {"POSITION" : 0}, "mode" : 0}], "name" : ""}], "nodes" : [{"mesh" : 0, "name" : "model"}], "scene" : 0, "scenes" : [{"nodes" : [0]}]}