{"accessors" : [{"bufferView" : 0, "byteOffset" : 0, "componentType" : 5123, "count" : 660, "type" : "SCALAR", "max" : [596], "min" : [0]}, {"bufferView" : 1, "byteOffset" : 0, "componentType" : 5126, "count" : 597, "type" : "VEC3", "max" : [4.1336469650268555, 13.886760711669922, 4.50278902053833], "min" : [-2.2714149951934814, -0.003971000202000141, -2.4985079765319824], "name" : "POSITION"}, {"bufferView" : 1, "byteOffset" : 12, "componentType" : 5126, "count" : 597, "type" : "VEC2", "max" : [2.998507022857666, 1.9747799634933472], "min" : [-1.998507022857666, -2.9629158973693848], "name" : "TEXCOORD_0"}, {"bufferView" : 1, "byteOffset" : 20, "componentType" : 5126, "count" : 597, "type" : "VEC3", "max" : [0.9974064230918884, 0.9794731140136719, 0.9999566674232483], "min" : [-0.9996259808540344, -0.9724539518356323, -0.9975748062133789], "name" : "NORMAL"}], "asset" : {"generator" : "Aspose.3D 23.2", "version" : "2.0"}, "buffers" : [{"uri" : "data:application/octet-stream;base64,", "byteLength" : 22448}], "bufferViews" : [{"buffer" : 0, "byteOffset" : 0, "byteLength" : 1320, "target" : 34963}, {"buffer" : 0, "byteOffset" : 1324, "byteLength" : 21120, "byteStride" : 32, "target" : 34962}], "meshes" : [{"primitives" : [{"attributes" : {"POSITION" : 1, "TEXCOORD_0" : 2, "NORMAL" : 3}, "indices" : 0, "mode" : 4}], "name" : ""}], "nodes" : [{"mesh" : 0, "name" : "Circle_Circle.001"}], "scene" : 0, "scenes" : [{"nodes" : [0]}]}