{"accessors" : [{"bufferView" : 0, "byteOffset" : 0, "componentType" : 5125, "count" : 6146580, "type" : "SCALAR", "max" : [5057397], "min" : [0]}, {"bufferView" : 1, "byteOffset" : 0, "componentType" : 5126, "count" : 5057398, "type" : "VEC3", "max" : [253.27609252929688, 163.09629821777344, 221.99380493164062], "min" : [-253.2761993408203, -163.09629821777344, -221.99380493164062], "name" : "POSITION"}], "asset" : {"generator" : "Aspose.3D 23.4.0", "version" : "2.0"}, "buffers" : [{"uri" : "buffer.bin", "byteLength" : 98345288}], "bufferViews" : [{"buffer" : 0, "byteOffset" : 0, "byteLength" : 24586320, "target" : 34963}, {"buffer" : 0, "byteOffset" : 24586324, "byteLength" : 73758960, "byteStride" : 12, "target" : 34962}], "meshes" : [{"primitives" : [{"attributes" : {"POSITION" : 1}, "indices" : 0, "mode" : 4}], "name" : ""}], "nodes" : [{"mesh" : 0, "name" : "model"}], "scene" : 0, "scenes" : [{"nodes" : [0]}]}